<svg xmlns="http://www.w3.org/2000/svg" width="287" height="75" viewBox="6.5 0 287 75" xmlns:v="https://vecta.io/nano"><linearGradient id="A" gradientUnits="userSpaceOnUse" x1="160.038" y1="63.369" x2="209.296" y2="14.111"><stop offset="0" stop-color="#ff6500"/><stop offset=".3" stop-color="#ff8000"/><stop offset="1" stop-color="#fa0"/></linearGradient><path fill="url(#A)" d="M142.3 38.758c0-4.606 1.85-8.795 4.89-11.797s7.193-4.852 11.767-4.852c4.61 0 8.765 1.85 11.767 4.852s4.854 7.19 4.854 11.797-1.85 8.725-4.854 11.76-7.16 4.886-11.767 4.886c-4.574 0-8.73-1.85-11.767-4.886a16.5 16.5 0 0 1-4.889-11.761zm6.006 0c0 2.897 1.187 5.55 3.108 7.47 1.92 1.954 4.61 3.175 7.543 3.175 2.968 0 5.587-1.222 7.507-3.175 1.92-1.92 3.074-4.572 3.074-7.47 0-2.932-1.152-5.584-3.074-7.503s-4.54-3.106-7.507-3.106c-2.934 0-5.587 1.187-7.507 3.106-1.956 1.918-3.144 4.57-3.144 7.503zM173.51 62c0-1.7 1.362-3.037 3.038-3.037h.244c1.292 0 2.55-.56 3.422-1.43s1.396-2.06 1.396-3.42V25.6a3.07 3.07 0 0 1 .908-2.165c.558-.558 1.292-.908 2.13-.908 1.676 0 3.003 1.36 3.003 3.07V54.11c0 .174 0 .28-.034.384-.104 2.93-1.328 5.514-3.282 7.433a10.7 10.7 0 0 1-7.543 3.071h-.244c-1.676.003-3.038-1.322-3.038-2.998zm20.214-23.243c0-4.606 1.85-8.795 4.89-11.797s7.193-4.852 11.767-4.852c4.61 0 8.765 1.85 11.767 4.852S227 34.15 227 38.758s-1.85 8.725-4.854 11.76-7.16 4.886-11.767 4.886c-4.574 0-8.73-1.85-11.767-4.886a16.5 16.5 0 0 1-4.889-11.761zm6.007 0c0 2.897 1.187 5.55 3.108 7.47 1.92 1.954 4.61 3.175 7.543 3.175 2.968 0 5.587-1.222 7.507-3.175 1.92-1.92 3.074-4.572 3.074-7.47 0-2.932-1.152-5.584-3.074-7.503s-4.54-3.106-7.507-3.106c-2.934 0-5.587 1.187-7.507 3.106-1.958 1.918-3.144 4.57-3.144 7.503z"/><linearGradient id="B" gradientUnits="userSpaceOnUse" x1="70.708" y1="109.838" x2="223.067" y2="-42.521"><stop offset="0" stop-color="#1a344e"/><stop offset="1" stop-color="#356aa0"/></linearGradient><path fill="url(#B)" d="M6.5 13.14C6.5 11.36 7.826 10 9.538 10s2.968 1.36 2.968 3.14v12.843c2.934-2.41 6.565-3.874 10.65-3.874 4.61 0 8.765 1.85 11.767 4.852s4.854 7.19 4.854 11.797c0 4.572-1.85 8.725-4.854 11.76s-7.16 4.886-11.767 4.886c-4.574 0-8.73-1.85-11.767-4.886S6.5 43.33 6.5 38.758V13.14zm6.005 25.617c0 2.897 1.188 5.55 3.108 7.47 1.92 1.954 4.61 3.175 7.543 3.175 2.968 0 5.587-1.222 7.507-3.175 1.92-1.92 3.073-4.572 3.073-7.47 0-2.932-1.152-5.584-3.073-7.54-1.92-1.92-4.54-3.072-7.507-3.072-2.934 0-5.622 1.152-7.543 3.072-1.92 1.954-3.108 4.607-3.108 7.54zM44.9 25.53c0-.838.35-1.57.908-2.13.524-.56 1.258-.872 2.095-.872s1.572.314 2.13.872.908 1.29.908 2.13v13.856c0 2.757 1.047 5.236 2.793 7.05s4.2 2.967 6.984 2.967 5.133-1.152 6.705-3 2.48-4.397 2.48-7.19V25.53c0-1.675 1.396-3 3.073-3s2.968 1.326 2.968 3v13.68c0 4.468-1.57 8.516-4.26 11.447S65.2 55.404 60.72 55.404c-4.435 0-8.415-1.78-11.243-4.712-2.828-2.897-4.574-6.91-4.574-11.343L44.9 25.53zm36.55 24.012c-.944-1.78-.42-3.28.698-3.98 1.082-.698 2.794-.56 4.33.838 1.258 1.85 3.84 3.21 6.914 3.21 1.432 0 2.864-.384 3.91-1.082s1.676-1.64 1.676-2.862c0-1.257-1.188-2.303-2.758-3.14-1.57-.802-3.596-1.43-5.238-1.954-2.06-.802-4.295-1.7-6.04-3.14-1.746-1.396-2.968-3.315-2.968-6.072 0-2.93 1.292-5.234 3.317-6.805s4.82-2.443 7.927-2.443c2 0 4.085.314 5.9 1.012 1.816.733 3.317 1.85 4.155 3.42.56 1.222.35 2.477-.35 3.21-.734.803-1.886 1.222-2.968.698-1.955-1.71-3.596-2.548-6.286-2.548-1.64 0-3.038.244-4.015.803-1.012.594-1.642 1.466-1.642 2.723 0 1.222.698 1.99 1.816 2.583s2.688 1.047 4.47 1.605c2.828.872 5.552 1.92 7.507 3.455s3.212 3.63 3.212 6.56c0 2.757-1.258 5.2-3.317 6.945-2.095 1.745-5.028 2.827-8.276 2.827-2.27 0-4.75-.384-6.88-1.36-2.128-.945-4.014-2.4-5.097-4.504zm53.21-3.978c.804-.174 1.676-.036 2.654.802 1.292 1.152 1.292 3.14-.14 4.572-2.793 2.897-6.984 4.468-11.313 4.468-4.61 0-8.765-1.815-11.803-4.782-3.073-2.967-4.923-7.085-4.923-11.69l.07-.14-.07-.07c0-4.606 1.85-8.795 4.923-11.797 3.038-3 7.193-4.816 11.803-4.816 4.365 0 8.52 1.466 11.313 4.362 1.432 1.43 1.502 3.455.14 4.606-.978.838-1.85.977-2.654.802-.838-.174-1.536-.698-2.13-1.222-2.2-1.85-4.54-2.617-7.193-2.513-2.828.036-5.377 1.327-7.193 3.28-1.85 1.954-3.003 4.572-3.003 7.225l-.07.07c0 .036.036.104.07.104 0 2.653 1.118 5.236 2.968 7.19 1.816 1.99 4.33 3.316 7.227 3.35 2.654.036 4.958-.698 7.193-2.617.595-.453 1.293-1.01 2.13-1.185zm98.162-32.423c0-1.78 1.326-3.14 3.038-3.14s2.968 1.36 2.968 3.14v12.843c2.934-2.41 6.565-3.874 10.65-3.874 4.61 0 8.765 1.85 11.767 4.852s4.854 7.19 4.854 11.797c0 4.572-1.85 8.725-4.854 11.76s-7.158 4.886-11.767 4.886c-4.574 0-8.73-1.85-11.767-4.886s-4.89-7.19-4.89-11.76l-.001-25.618zm6.006 25.617c0 2.897 1.188 5.55 3.108 7.47 1.92 1.954 4.61 3.175 7.543 3.175 2.968 0 5.587-1.222 7.507-3.175 1.92-1.92 3.073-4.572 3.073-7.47 0-2.932-1.152-5.584-3.073-7.54-1.92-1.92-4.54-3.072-7.507-3.072-2.934 0-5.622 1.152-7.543 3.072-1.92 1.954-3.108 4.607-3.108 7.54zm31.103 10.784c-.944-1.78-.42-3.28.698-3.98 1.082-.698 2.794-.56 4.33.838 1.258 1.85 3.84 3.21 6.914 3.21 1.432 0 2.863-.384 3.91-1.082s1.676-1.64 1.676-2.862c0-1.257-1.188-2.303-2.758-3.14-1.57-.802-3.596-1.43-5.238-1.954-2.06-.802-4.295-1.7-6.04-3.14-1.746-1.396-2.968-3.315-2.968-6.072 0-2.93 1.292-5.234 3.317-6.805s4.82-2.443 7.927-2.443c2 0 4.085.314 5.9 1.012 1.816.733 3.317 1.85 4.155 3.42.56 1.222.35 2.477-.35 3.21-.734.803-1.886 1.222-2.968.698-1.956-1.71-3.596-2.548-6.286-2.548-1.64 0-3.038.244-4.015.803-1.012.594-1.642 1.466-1.642 2.723 0 1.222.698 1.99 1.816 2.583s2.688 1.047 4.47 1.605c2.828.872 5.552 1.92 7.507 3.455s3.212 3.63 3.212 6.56c0 2.757-1.257 5.2-3.317 6.945-2.095 1.745-5.028 2.827-8.276 2.827-2.27 0-4.75-.384-6.88-1.36-2.128-.945-4.014-2.4-5.096-4.504z"/><g fill="#356aa0"><circle cx="161.988" cy="40.157" r="4.534"/><circle cx="213.626" cy="40.157" r="4.534"/></g></svg>