<svg xmlns="http://www.w3.org/2000/svg" xmlns:xlink="http://www.w3.org/1999/xlink" width="1466.9" height="296.8" xmlns:v="https://vecta.io/nano"><g transform="matrix(1.3333 0 0 -1.3333 0 296.82)"><defs><path id="A" d="M-183.3-37.1h1466.9v296.8H-183.3z"/><path id="B" d="M81.887 30.601h-56.8l4.4 26h56.8l-4.4-26z"/></defs><clipPath id="C"><use xlink:href="#A"/></clipPath><g clip-path="url(#C)"><g fill="#1b1819"><path d="M52.322 88.094c-4.3 1.5-7.8 3.6-10.5 6.3s-4.7 6.1-6 10c-1.3 4-1.9 8.5-1.9 13.5 0 2.7.4 7 1.1 12.7s1.8 12.9 3.3 21.5c1.3 7.6 3 14.1 5.2 19.2s5 9.2 8.5 12.3 7.8 5.2 12.8 6.5c5.1 1.3 11.3 1.9 18.5 1.9h17c6.6 0 12.2-.6 16.6-1.8s7.9-2.9 10.6-5.2 4.6-5 5.7-8.1 1.7-6.6 1.7-10.3v-5.9c0-1.7-.2-3.5-.6-5.4h-26.3c.1.8.2 1.5.2 2.2s.1 1.3.1 2c0 1.5-.2 2.9-.7 4.1s-1.3 2.2-2.4 3.1c-1.2.9-2.8 1.5-4.8 2-2.1.4-4.8.6-8.1.6h-7.3c-3.5 0-6.5-.3-9-.9s-4.6-1.7-6.3-3.2c-1.7-1.6-3.1-3.6-4.1-6.2s-1.9-5.8-2.6-9.8l-2.7-16.4c-.7-4.3-1-7.7-1-10.2 0-5 1.2-8.6 3.6-10.7s6.9-3.2 13.3-3.2h5.4c4.1 0 7.4.3 9.9.8s4.4 1.3 5.9 2.3c1.5 1.1 2.5 2.5 3.2 4.2.7 1.8 1.2 3.9 1.6 6.4h26.1c-1.3-7.3-2.8-13.2-4.6-17.9s-4.3-8.4-7.6-11.2-7.5-4.7-12.8-5.8c-5.2-1.1-11.9-1.7-20.1-1.7h-15.6c-5.9.1-11 .8-15.3 2.3M182.99 141.83c-1.6 1.7-4.3 2.6-8.2 2.6h-6.3c-3.5 0-6.3-1-8.2-3.1s-3.2-5-3.9-8.7c-.9-5-1.6-9.5-2.1-13.3s-.8-6.8-.8-8.8c0-2.4.8-4.4 2.3-6.1 1.6-1.6 4.2-2.4 7.9-2.4h4.8c4.3 0 7.6 1 9.8 3.1s3.6 4.9 4.2 8.4l1.4 8.9c.4 2.4.7 4.4.9 6 .3 1.6.4 2.9.5 3.9 0 1 .1 1.7.1 2.2 0 3.2-.8 5.6-2.4 7.3m-23.7-57.1c-9.2 0-16 2.1-20.6 6.2-4.5 4.1-6.8 10-6.8 17.5 0 .8.1 2.1.2 3.9l.6 6.1.9 7.6c.3 2.8.8 5.6 1.3 8.4.7 4 1.8 7.7 3.3 11.1s3.6 6.3 6.1 8.8c2.6 2.5 5.7 4.4 9.4 5.7 3.7 1.4 8.3 2 13.6 2h12.7c4.8 0 8.9-.6 12.3-1.7 3.4-1.2 6.2-2.8 8.4-4.8s3.8-4.4 4.8-7.2 1.5-5.8 1.5-9c0-1.7-.2-5.1-.5-10.3-.4-5.1-1.2-11.3-2.5-18.4-.8-4.5-2-8.4-3.5-11.7s-3.6-6-6.2-8.1-5.8-3.7-9.6-4.7-8.3-1.5-13.7-1.5h-11.7zm191.02 49.92c-.1-1.8-.4-3.7-.8-5.8l-7.6-42.9h-25.1l7.2 39.7.4 4.4.1 3.3c0 2.9-.9 5.3-2.7 7-1.8 1.8-4.8 2.6-9.1 2.6-6 0-10.3-1.5-12.8-4.5s-4.2-7.2-5.1-12.8l-7.1-39.9h-25.2l7 39.1c.3 1.8.5 3.3.5 4.5v3.3c0 3.2-1.1 5.7-3.2 7.5s-5.2 2.6-9.4 2.6c-3.1 0-5.7-.5-7.9-1.4-2.1-1-3.9-2.2-5.2-3.7-1.4-1.5-2.4-3.3-3.1-5.2-.7-2-1.2-4-1.5-6l-7.3-40.8h-25.2l13.1 74.7h24.9l-2-11.2c1 1.3 2.3 2.6 3.8 4s3.4 2.6 5.7 3.6c2.3 1.1 4.9 1.9 8 2.6s6.7 1 11 1c3.9 0 7.2-.4 9.9-1.1 2.7-.8 4.9-1.7 6.7-2.9s3.3-2.6 4.4-4.2 2-3.1 2.6-4.6c1.1 1.4 2.4 2.9 3.9 4.4s3.3 2.9 5.5 4.2 4.8 2.3 7.8 3.1 6.7 1.2 10.9 1.2c4.9 0 9.1-.6 12.5-1.8s6.2-2.8 8.4-4.8 3.7-4.2 4.7-6.7 1.4-5.1 1.4-7.9c.1-1.3 0-2.8-.1-4.6m32.73-27.51c1.8-2.3 4.7-3.4 8.8-3.4h7.6c5.4 0 9.4 1.2 11.9 3.6s4.3 6.1 5.4 11.3c.7 3.2 1.2 5.9 1.4 7.9.3 2.1.4 3.8.4 5.1 0 3.5-1 6.4-2.9 8.5-1.9 2.2-5.2 3.2-9.8 3.2h-7c-4.2 0-7.8-1.1-10.7-3.4-3-2.3-4.8-5.8-5.6-10.7l-1.5-8.2c-.4-2.3-.6-4.1-.6-5.4 0-3.4.8-6.2 2.6-8.5m46.3 52c3.3-1.3 6-3 8.2-5.2 2.1-2.2 3.6-4.9 4.5-7.9.9-3.1 1.4-6.4 1.4-9.9 0-1.4-.1-4.2-.3-8.4s-.9-9.2-2-15.2c-1.6-9.2-5.3-15.9-11-20.2s-13.7-6.4-24.1-6.4h-10.5c-6.5 0-11.1 1-14.1 2.9-2.9 2-4.9 4.5-5.9 7.6l-7.1-40.5h-25.1l18.4 104.6h25.2l-1.7-9.4c1.9 2.5 4.9 4.8 8.9 6.8s8.9 3 14.7 3h8.3c4.8.1 8.9-.5 12.2-1.8m26.55-66.888c-4.3 4.3-6.4 10.2-6.4 17.5v4.7c0 1.7.3 4.2.8 7.4l6.8 38.7h25.2l-7.1-40.2-.4-3.1c-.1-.7-.1-1.3-.1-2 0-3.6 1.1-6.4 3.2-8.3s5.6-2.9 10.6-2.9c4.3 0 8 1.2 11 3.6s4.9 6.2 5.8 11.3l7.3 41.6h25.3l-13.2-74.6h-25l1.7 8.9c-4.8-6-12.1-9.1-21.8-9.1h-5c-8.2 0-14.4 2.2-18.7 6.5m163.93 75.118h-25.1l-14.5-81.5h-25.2l14.5 81.5h-25.2l4.1 23.4h75.5l-4.1-23.4z"/><path d="M667.43 134.58c0 2.5-.7 4.6-2.2 6.1-1.5 1.6-4.3 2.3-8.4 2.3-4.4 0-7.9-1.4-10.4-4.1s-4.1-6-4.8-9.8l-7.6-43.2h-25.1l13.3 74.7h25.1l-2-11c.8 1.3 1.8 2.6 3 3.9s2.8 2.5 4.7 3.6 4.2 1.9 6.9 2.6c2.7.6 5.9 1 9.6 1 4.7 0 8.6-.6 11.6-1.9s5.4-2.9 7.2-5.1c1.8-2.1 3-4.5 3.7-7.2s1.1-5.4 1.1-8.1c0-1.7-.1-3-.2-3.9-.2-.9-.4-2.3-.8-4.2h-25.2c.4 1.4.5 2.9.5 4.3m54.11-31.9h12.2c1.1 0 2.2.1 3.2.2s1.9.6 2.7 1.2c.8.7 1.5 1.6 2 2.8s.8 2.9.8 5c0 1.9-.5 3.2-1.6 4s-2.6 1.1-4.6 1.1h-12.4c-.8 0-1.7-.1-2.7-.2s-2-.5-2.9-1.1-1.7-1.5-2.3-2.7c-.7-1.2-1-2.9-1-5 0-3.5 2.2-5.3 6.6-5.3m8.6 31.1c3.2 0 5.8-.2 7.8-.5 2-.4 3.5-.9 4.7-1.5 1.2-.7 2-1.4 2.6-2.2s1.1-1.7 1.6-2.6l1.2 6.4c.3 1.7.5 3.1.5 4.3 0 4.9-3.5 7.4-10.4 7.4h-7.8c-1.5 0-2.8-.1-3.8-.2s-1.8-.4-2.4-.8-1.1-.9-1.5-1.5-.8-1.4-1.2-2.3h-23.9c.6 3.2 1.5 6.2 2.7 8.8 1.2 2.7 3 4.9 5.4 6.8s5.5 3.3 9.4 4.4c3.8 1.1 8.6 1.6 14.4 1.6h11.3c19.5 0 29.3-6.9 29.3-20.7 0-1.2-.1-2.3-.2-3.2-.2-.9-.3-2.1-.5-3.6l-8.6-48.5h-21l1.2 6.5c-.8-.9-1.7-1.7-2.7-2.5s-2.2-1.4-3.6-2-3.1-1.1-5.2-1.4c-2.1-.4-4.6-.5-7.6-.5h-10.9c-13.7 0-20.6 5.6-20.6 16.9 0 .8 0 2.1.2 4 .1 1.9.3 3.9.8 6.1 1.2 7.3 4.1 12.5 8.8 15.9 4.7 3.3 11.4 5 20 5h10zm76.73-26.72c1.9-2.3 4.6-3.5 8.2-3.5h8c5.6 0 9.7 1.2 12.2 3.5 2.5 2.4 4 5.4 4.6 9l1.4 8.5c.4 2.8.6 5.1.6 7 0 3.4-.8 6.2-2.5 8.3s-4.6 3.2-8.8 3.2h-8.3c-4.2 0-7.8-1.3-10.8-4s-4.9-6.1-5.7-10.2l-1.2-7.9c-.3-2.1-.5-4-.5-5.6 0-3.2.9-6 2.8-8.3m-9.7-21h-25.1l18.4 104.7h25.1l-7-40c2.2 2.9 5.1 5.3 8.5 7.2 3.5 1.9 8.4 2.9 14.9 2.9h9.7c4.7 0 8.7-.6 11.9-1.9s5.8-3 7.9-5.1c2-2.2 3.5-4.8 4.4-7.8s1.4-6.3 1.4-9.8c0-.6-.1-1.8-.2-3.6s-.3-4-.5-6.4l-1-8.1c-.4-2.9-.9-5.8-1.4-8.6-1.3-7.2-4.7-13-10.1-17.3s-13.5-6.4-24-6.4h-11.2c-2.9 0-5.4.3-7.6.9-2.1.6-4 1.4-5.6 2.4s-3 2.1-4.1 3.2-2.1 2.2-2.9 3.3l-1.5-9.6zm104.54 16.62h12.2c1.1 0 2.2.1 3.2.2s1.9.6 2.7 1.2c.8.7 1.5 1.6 2 2.8s.8 2.9.8 5c0 1.9-.5 3.2-1.6 4s-2.6 1.1-4.6 1.1h-12.4c-.8 0-1.7-.1-2.7-.2s-2-.5-2.9-1.1-1.7-1.5-2.3-2.7-1-2.9-1-5c0-3.5 2.2-5.3 6.6-5.3m8.6 31.1c3.2 0 5.8-.2 7.8-.5 2-.4 3.5-.9 4.7-1.5 1.2-.7 2-1.4 2.6-2.2s1.1-1.7 1.6-2.6l1.2 6.4c.3 1.7.5 3.1.5 4.3 0 4.9-3.5 7.4-10.4 7.4h-7.8c-1.5 0-2.8-.1-3.8-.2s-1.8-.4-2.4-.8-1.1-.9-1.5-1.5-.8-1.4-1.2-2.3h-23.9c.6 3.2 1.5 6.2 2.7 8.8 1.2 2.7 3 4.9 5.4 6.8s5.5 3.3 9.4 4.4c3.8 1.1 8.6 1.6 14.4 1.6h11.3c19.6 0 29.3-6.9 29.3-20.7 0-1.2-.1-2.3-.2-3.2-.2-.9-.3-2.1-.5-3.6l-8.6-48.5h-21l1.2 6.5c-.8-.9-1.7-1.7-2.7-2.5s-2.2-1.4-3.6-2-3.1-1.1-5.2-1.4c-2.1-.4-4.6-.5-7.6-.5h-10.9c-13.7 0-20.6 5.6-20.6 16.9 0 .8 0 2.1.2 4 .1 1.9.4 3.9.8 6.1 1.2 7.3 4.1 12.5 8.8 15.9 4.7 3.3 11.4 5 20 5h10zm88.6 36.92h-25.2l3.5 20.1h25.2l-3.5-20.1zm-2-10.1l-14.4-81.8c-1-5.6-2.6-10.1-4.8-13.5-2.2-3.3-5-5.8-8.4-7.6-3.4-1.7-7.2-2.8-11.6-3.3-4.3-.5-9.1-.7-14.4-.7h-2.4c-.7 0-1.4 0-2 .2l3.6 21c.3-.1.7-.2 1.1-.2h1.4a17.13 17.13 0 0 1 3.6.4c1.4.3 2.7.8 4.1 1.7s2.6 2.2 3.7 3.9 1.9 4 2.4 6.8l12.8 73h25.3zm53.99-18.77c-1.6 1.7-4.3 2.6-8.2 2.6h-6.3c-3.5 0-6.2-1-8.2-3.1-1.9-2.1-3.2-5-3.9-8.7-.9-5-1.6-9.5-2.1-13.3s-.8-6.8-.8-8.8c0-2.4.8-4.4 2.3-6.1 1.6-1.6 4.2-2.4 7.9-2.4h4.8c4.3 0 7.6 1 9.8 3.1s3.5 4.9 4.1 8.4l1.4 8.9c.4 2.4.7 4.4.9 6 .3 1.6.4 2.9.5 3.9a20.34 20.34 0 0 1 .1 2.2c.1 3.2-.7 5.6-2.3 7.3m-23.7-57.1c-9.2 0-16 2.1-20.6 6.2-4.5 4.1-6.8 10-6.8 17.5 0 .8.1 2.1.2 3.9s.4 3.8.6 6.1.6 4.9.9 7.6c.3 2.8.8 5.6 1.3 8.4.7 4 1.8 7.7 3.3 11.1s3.6 6.3 6.1 8.8c2.6 2.5 5.7 4.4 9.4 5.7 3.7 1.4 8.3 2 13.6 2h12.7c4.8 0 8.9-.6 12.3-1.7 3.4-1.2 6.2-2.8 8.4-4.8s3.8-4.4 4.8-7.2 1.5-5.8 1.5-9c0-1.7-.2-5.1-.5-10.3-.3-5.1-1.2-11.3-2.5-18.4-.8-4.5-2-8.4-3.5-11.7s-3.6-6-6.2-8.1-5.8-3.7-9.6-4.7-8.3-1.5-13.7-1.5h-11.7z"/></g><use xlink:href="#B" fill="#426b4b"/><path fill="#00309b" d="M195.49 30.601h-56.8l4.4 26h56.8l-4.4-26z"/><path fill="#dea84f" d="M138.69 30.601h-56.8l4.4 26h56.8l-4.4-26z"/><path fill="#3685bd" d="M309.09 30.601h-56.8l4.4 26h56.8l-4.4-26z"/><path fill="#e92d35" d="M252.29 30.601h-56.8l4.4 26h56.8l-4.4-26z"/></g></g></svg>